<svg width="50" height="52" viewBox="0 0 50 52" fill="none" xmlns="http://www.w3.org/2000/svg">
<g clip-path="url(#clip0_203_190)">
<path d="M8.13343 -1.52588e-05H41.8673C46.363 -1.52588e-05 49.9972 3.77913 49.9972 8.4559V43.548C49.9972 48.2189 46.363 52 41.8673 52H13.3194L13.2243 29.5977H13.21V29.4389C13.21 20.9446 19.6907 14.0791 27.7143 14.0791C32.5258 14.0791 36.4169 18.1991 36.4169 23.2947C36.4169 28.3911 32.5258 32.511 27.7143 32.511C26.1082 32.511 24.8134 31.134 24.8134 29.4389C24.8134 27.7386 26.1082 26.3668 27.7143 26.3668C29.3173 26.3668 30.6152 24.9898 30.6152 23.2947C30.6152 21.5944 29.3198 20.2233 27.7143 20.2233C22.8997 20.2233 19.0117 24.3433 19.0117 29.4389C19.0117 34.5353 22.8966 38.652 27.7143 38.652C35.7348 38.652 42.2187 31.7838 42.2187 23.2921C42.2187 14.7978 35.7348 7.93164 27.7143 7.93164C16.4847 7.93164 7.40509 17.5434 7.40509 29.4363V29.6217H7.35883L7.45386 51.9701C3.27823 51.6143 0.00286865 47.9854 0.00286865 43.5447V8.45265C0.00286865 3.78498 3.63771 -1.52588e-05 8.13343 -1.52588e-05Z" fill="#F29002"/>
</g>
<defs>
<clipPath id="clip0_203_190">
<rect width="50" height="52" fill="white"/>
</clipPath>
</defs>
</svg>
